<svg width="131" height="180" viewBox="0 0 131 180" fill="none" xmlns="http://www.w3.org/2000/svg">
<path d="M0.0228856 179.999V177.107C0.0228856 140.926 -0.0286071 104.745 0.0228856 68.5347C0.0596608 49.828 12.5274 34.4151 30.7693 31.6348C38.7868 30.4169 47.1355 31.4293 55.8813 31.4293V34.4738C55.8813 70.0436 55.8813 105.613 55.8813 141.184C55.8813 163.925 39.8313 179.881 17.0364 179.961C11.5711 180.012 6.06181 179.999 0.0228856 179.999Z" fill="white"/>
<path d="M74.5084 117.747V0.00175285C84.8694 0.542328 95.1931 -1.29564 105.208 2.3185C119.956 7.53586 129.984 21.903 130.262 38.2127C130.462 51.341 130.381 64.4691 130.328 77.5974C130.233 99.9925 115.944 116.21 94.6772 117.755C88.0894 118.156 81.4575 117.747 74.5084 117.747Z" fill="white"/>
</svg>
