<svg width="270" height="270" viewBox="0 0 270 270" fill="none" xmlns="http://www.w3.org/2000/svg">
<path d="M0 0H270V270H0V0Z" fill="white"/>
<path d="M70.0229 224.999V222.107C70.0229 185.926 69.9714 149.745 70.0229 113.535C70.0597 94.828 82.5274 79.4151 100.769 76.6348C108.787 75.4169 117.135 76.4293 125.881 76.4293V79.4738C125.881 115.044 125.881 150.613 125.881 186.184C125.881 208.925 109.831 224.881 87.0364 224.961C81.5711 225.012 76.0618 224.999 70.0229 224.999Z" fill="#2A93DA"/>
<path d="M144.508 162.747V45.0018C154.869 45.5423 165.193 43.7044 175.208 47.3185C189.956 52.5359 199.984 66.903 200.262 83.2128C200.462 96.341 200.381 109.469 200.328 122.597C200.233 144.992 185.944 161.21 164.677 162.755C158.089 163.156 151.457 162.747 144.508 162.747Z" fill="#2A93DA"/>
</svg>
