<svg width="270" height="270" viewBox="0 0 270 270" fill="none" xmlns="http://www.w3.org/2000/svg">
<rect width="270" height="270" fill="white"/>
<mask id="mask0_1_15" style="mask-type:luminance" maskUnits="userSpaceOnUse" x="69" y="45" width="133" height="180">
<path d="M201.546 45H69V225H201.546V45Z" fill="white"/>
</mask>
<g mask="url(#mask0_1_15)">
<mask id="mask1_1_15" style="mask-type:luminance" maskUnits="userSpaceOnUse" x="69" y="45" width="671" height="180">
<path d="M739.575 45H69V225H739.575V45Z" fill="white"/>
</mask>
<g mask="url(#mask1_1_15)">
<path d="M70.4175 224.999V222.107C70.4175 185.926 70.366 149.745 70.4175 113.535C70.4543 94.828 82.922 79.4151 101.164 76.6347C109.181 75.4169 117.53 76.4292 126.276 76.4292V79.4737C126.276 115.044 126.276 150.613 126.276 186.184C126.276 208.925 110.226 224.881 87.431 224.961C81.9657 225.012 76.4564 224.999 70.4175 224.999Z" fill="#2A93DA"/>
<path d="M144.903 162.747V45.0018C155.264 45.5423 165.588 43.7044 175.602 47.3185C190.351 52.5359 200.379 66.903 200.656 83.2127C200.856 96.341 200.775 109.469 200.723 122.597C200.628 144.992 186.339 161.21 165.072 162.755C158.484 163.156 151.852 162.747 144.903 162.747Z" fill="#2A93DA"/>
</g>
</g>
</svg>
